<svg width="95" height="95" viewBox="0 0 95 95" fill="none" xmlns="http://www.w3.org/2000/svg">
<circle cx="47.5" cy="47.5" r="47.5" fill="#F4EFE8"/>
<g clip-path="url(#clip0_147_2327)">
<path d="M51.4872 59.4809C51.8 57.5514 50.4894 55.7337 48.5599 55.4209C46.6304 55.1081 44.8127 56.4187 44.4999 58.3482C44.1872 60.2776 45.4977 62.0954 47.4272 62.4081C49.3567 62.7209 51.1744 61.4103 51.4872 59.4809Z" fill="#C6A14A"/>
<path d="M65.9435 40.9749C60.8425 35.874 54.2826 33.542 48 33.542C41.7174 33.542 35.1575 35.874 30.0565 40.9749C28.6468 42.3863 28.6533 44.5717 30.0434 45.9677C31.7793 47.723 34.0522 47.0243 35.07 45.9724C38.5252 42.5219 43.1167 40.6216 48 40.6216C52.8833 40.6216 57.4748 42.5219 60.93 45.9724C61.9478 47.0243 64.2207 47.723 65.9566 45.9677C67.3468 44.5717 67.3532 42.3863 65.9435 40.9749Z" fill="#C6A14A"/>
<path d="M47.9995 44.46C44.48 44.46 40.7035 45.7684 37.7772 48.6941C36.3494 50.1218 36.3779 52.3174 37.7914 53.716C39.195 55.11 41.3787 55.1041 42.7819 53.7009C44.1756 52.3073 46.0285 51.5398 47.9995 51.5398C49.9704 51.5398 51.8234 52.3073 53.2171 53.7009C54.6202 55.1041 56.804 55.11 58.2075 53.716C59.6211 52.3174 59.6495 50.1218 58.2218 48.6941C55.2955 45.7685 51.5191 44.46 47.9995 44.46Z" fill="#C6A14A"/>
</g>
<defs>
<clipPath id="clip0_147_2327">
<rect width="38" height="38" fill="white" transform="translate(29 29)"/>
</clipPath>
</defs>
</svg>
